HIERARCHY
ROOT Hips
{
	OFFSET 0.000000 0.000000 0.000000
	CHANNELS 6 Xposition Yposition Zposition Zrotation Yrotation Xrotation
	JOINT LHipJoint
	{
		OFFSET 0.000000 0.000000 0.000000
		CHANNELS 3 Zrotation Yrotation Xrotation
		JOINT LeftUpLeg
		{
			OFFSET 1.363060 -1.794630 0.839290
			CHANNELS 3 Zrotation Yrotation Xrotation
			JOINT LeftLeg
			{
				OFFSET 2.448110 -6.726130 0.000000
				CHANNELS 3 Zrotation Yrotation Xrotation
				JOINT LeftFoot
				{
					OFFSET 2.562200 -7.039590 0.000000
					CHANNELS 3 Zrotation Yrotation Xrotation
					JOINT LeftToeBase
					{
						OFFSET 0.157640 -0.433110 2.322550
						CHANNELS 3 Zrotation Yrotation Xrotation
						End Site
						{
							OFFSET 0.000000 0.000000 0.000000
						}
					}
				}
			}
		}
	}
	JOINT RHipJoint
	{
		OFFSET 0.000000 0.000000 0.000000
		CHANNELS 3 Zrotation Yrotation Xrotation
		JOINT RightUpLeg
		{
			OFFSET -1.305520 -1.794630 0.839290
			CHANNELS 3 Zrotation Yrotation Xrotation
			JOINT RightLeg
			{
				OFFSET -2.542530 -6.985550 0.000000
				CHANNELS 3 Zrotation Yrotation Xrotation
				JOINT RightFoot
				{
					OFFSET -2.568260 -7.056230 0.000000
					CHANNELS 3 Zrotation Yrotation Xrotation
					JOINT RightToeBase
					{
						OFFSET -0.164730 -0.452590 2.363150
						CHANNELS 3 Zrotation Yrotation Xrotation
						End Site
						{
							OFFSET 0.000000 0.000000 0.000000
						}
					}
				}
			}
		}
	}
	JOINT LowerBack
	{
		OFFSET 0.000000 0.000000 0.000000
		CHANNELS 3 Zrotation Yrotation Xrotation
		JOINT Spine
		{
			OFFSET 0.028270 2.035590 -0.193380
			CHANNELS 3 Zrotation Yrotation Xrotation
			JOINT Spine1
			{
				OFFSET 0.056720 2.048850 -0.042750
				CHANNELS 3 Zrotation Yrotation Xrotation
				JOINT Neck
				{
					OFFSET 0.000000 0.000000 0.000000
					CHANNELS 3 Zrotation Yrotation Xrotation
					JOINT Neck1
					{
						OFFSET -0.054170 1.746240 0.172020
						CHANNELS 3 Zrotation Yrotation Xrotation
						JOINT Head
						{
							OFFSET 0.104070 1.761360 -0.123970
							CHANNELS 3 Zrotation Yrotation Xrotation
							End Site
							{
								OFFSET 0.000000 0.000000 0.000000
							}
						}
					}
				}
				JOINT LeftShoulder
				{
					OFFSET 0.000000 0.000000 0.000000
					CHANNELS 3 Zrotation Yrotation Xrotation
					JOINT LeftArm
					{
						OFFSET 3.362410 1.200890 -0.311210
						CHANNELS 3 Zrotation Yrotation Xrotation
						JOINT LeftForeArm
						{
							OFFSET 4.983000 -0.000000 -0.000000
							CHANNELS 3 Zrotation Yrotation Xrotation
							JOINT LeftHand
							{
								OFFSET 3.483560 -0.000000 -0.000000
								CHANNELS 3 Zrotation Yrotation Xrotation
								JOINT LeftFingerBase
								{
									OFFSET 0.000000 0.000000 0.000000
									CHANNELS 3 Zrotation Yrotation Xrotation
									JOINT LeftHandIndex1
									{
										OFFSET 0.715260 -0.000000 -0.000000
										CHANNELS 3 Zrotation Yrotation Xrotation
										End Site
										{
											OFFSET 0.000000 0.000000 0.000000
										}
									}
								}
								JOINT LThumb
								{
									OFFSET 0.000000 0.000000 0.000000
									CHANNELS 3 Zrotation Yrotation Xrotation
									End Site
									{
										OFFSET 0.000000 0.000000 0.000000
									}
								}
							}
						}
					}
				}
				JOINT RightShoulder
				{
					OFFSET 0.000000 0.000000 0.000000
					CHANNELS 3 Zrotation Yrotation Xrotation
					JOINT RightArm
					{
						OFFSET -3.136600 1.374050 -0.404650
						CHANNELS 3 Zrotation Yrotation Xrotation
						JOINT RightForeArm
						{
							OFFSET -5.241900 -0.000000 -0.000000
							CHANNELS 3 Zrotation Yrotation Xrotation
							JOINT RightHand
							{
								OFFSET -3.444170 -0.000000 -0.000000
								CHANNELS 3 Zrotation Yrotation Xrotation
								JOINT RightFingerBase
								{
									OFFSET 0.000000 0.000000 0.000000
									CHANNELS 3 Zrotation Yrotation Xrotation
									JOINT RightHandIndex1
									{
										OFFSET -0.622530 -0.000000 -0.000000
										CHANNELS 3 Zrotation Yrotation Xrotation
										End Site
										{
											OFFSET 0.000000 0.000000 0.000000
										}
									}
								}
								JOINT RThumb
								{
									OFFSET 0.000000 0.000000 0.000000
									CHANNELS 3 Zrotation Yrotation Xrotation
									End Site
									{
										OFFSET 0.000000 0.000000 0.000000
									}
								}
							}
						}
					}
				}
			}
		}
	}
}
MOTION
Frames: 9
Frame Time: 0.008333
1.943348 2.050813 3.001170 9.905951 -9.244399 1.104449 2.144748 1.263615 0.393163 -5.177039 -5.588128 -2.351465 -7.750298 1.276623 -0.470822 -2.105272 9.397119 6.155495 0.129528 -0.340440 2.624128 3.596633 -0.342154 0.602245 6.336452 3.768196 -0.108110 -0.760643 -3.060219 10.979550 0.228909 6.608312 5.318726 0.248663 2.511965 -9.240641 0.181504 1.741511 -0.047428 1.025644 0.319506 -1.432557 0.085704 -0.415970 0.790061 -0.259507 1.598982 -4.891129 -1.409048 1.345636 11.931195 0.571633 -1.029036 2.248378 -2.608544 1.553039 2.294825 -57.804626 0.777335 4.725305 9.997851 -13.973022 -2.961389 -0.532055 -0.451590 3.607279 8.972066 1.161842 14.390876 -3.081728 0.000000 0.000000 -3.296371 25.871061 10.611150 0.615429 2.782314 -0.177090 30.777145 -21.262596 5.989584 -14.544483 16.833767 -18.030937 -0.361338 0.687284 -0.441464 -1.845175 33.722572 14.823244 4.186761 0.000000 0.000000 45.233929 9.714270 77.093193
1.971921 2.091648 3.008525 9.901065 -9.274997 1.135219 2.148126 1.266024 0.372297 -5.227097 -5.611856 -2.495340 -7.772112 1.312744 -0.367220 -2.114230 9.345945 6.170640 0.127029 -0.364028 2.494958 3.581935 -0.356903 0.597477 6.380868 3.782712 -0.135132 -0.763353 -3.094864 11.050257 0.220480 6.618044 5.306964 0.245553 2.504315 -9.251820 0.189697 1.752198 -0.048293 1.031530 0.328751 -1.444192 0.083741 -0.414647 0.772349 -0.275876 1.589671 -4.954672 -1.387906 1.326945 11.982771 0.574666 -1.035890 2.271146 -2.623663 1.554455 2.293532 -58.229080 0.815272 4.740637 10.039721 -14.067000 -2.974561 -0.535969 -0.455844 3.607544 9.016812 1.157571 14.399705 -3.114832 0.000000 0.000000 -3.377970 25.938297 10.540345 0.616662 2.780507 -0.182898 31.051661 -21.258116 6.084324 -14.669539 16.951189 -18.074862 -0.356710 0.684334 -0.496369 -2.057191 33.660217 14.691679 4.212975 0.000000 0.000000 45.153568 9.522713 76.968796
1.998875 2.131649 3.010754 9.894756 -9.310363 1.166853 2.152185 1.268854 0.352299 -5.275285 -5.634200 -2.630478 -7.791619 1.354011 -0.251745 -2.121715 9.302567 6.197322 0.126775 -0.379701 2.394409 3.578821 -0.367380 0.600035 6.448247 3.809536 -0.141688 -0.762327 -3.123328 11.138949 0.216383 6.648649 5.322709 0.245885 2.505711 -9.236562 0.205493 1.766449 -0.037830 1.041185 0.343108 -1.447209 0.087185 -0.410543 0.766710 -0.282245 1.587512 -5.006262 -1.361708 1.317091 12.046957 0.585053 -1.038139 2.304527 -2.626917 1.565451 2.294539 -58.592545 0.874673 4.812647 10.096355 -14.139588 -2.982468 -0.538160 -0.456171 3.656646 9.088491 1.194156 14.426123 -3.144323 0.000000 0.000000 -3.383510 26.095768 10.552009 0.629423 2.786680 -0.185703 31.370785 -21.236002 6.203034 -14.766323 17.094444 -18.101950 -0.350110 0.683742 -0.530142 -2.120157 33.664082 14.680375 4.242387 0.000000 0.000000 45.220276 9.414820 76.991188
2.025506 2.171338 3.010671 9.888071 -9.346319 1.198428 2.156406 1.271670 0.332291 -5.322331 -5.654940 -2.762520 -7.810372 1.395312 -0.137901 -2.128856 9.259272 6.226012 0.126843 -0.395227 2.296776 3.576359 -0.377607 0.603016 6.516872 3.837083 -0.147023 -0.761057 -3.151352 11.229112 0.212642 6.680900 5.340749 0.246511 2.507976 -9.219114 0.221936 1.780996 -0.026366 1.051092 0.357831 -1.449637 0.090997 -0.406261 0.761716 -0.288036 1.585764 -5.057212 -1.335264 1.307688 12.111698 0.595808 -1.040185 2.338442 -2.629574 1.576924 2.295660 -58.953148 0.935078 4.887479 10.153678 -14.211138 -2.990103 -0.540262 -0.456286 3.708285 9.161529 1.232939 14.453521 -3.173599 0.000000 0.000000 -3.384542 26.258774 10.568729 0.642893 2.793349 -0.188309 31.692820 -21.212812 6.323244 -14.861434 17.239185 -18.128086 -0.343397 0.683283 -0.562642 -2.174595 33.671795 14.675909 4.271979 0.000000 0.000000 45.295185 9.311453 77.022072
2.050071 2.209200 3.002822 9.879068 -9.387250 1.224654 2.156077 1.275478 0.313026 -5.363680 -5.669964 -2.810329 -7.808064 1.483935 0.099893 -2.131916 9.225401 6.255805 0.126997 -0.408553 2.202647 3.576634 -0.386807 0.607986 6.590746 3.867019 -0.148462 -0.760320 -3.178315 11.321502 0.209339 6.709995 5.351873 0.245811 2.506863 -9.217283 0.234041 1.792974 -0.022902 1.058434 0.369358 -1.457508 0.091538 -0.403105 0.751573 -0.297528 1.581405 -5.114225 -1.311259 1.294855 12.171258 0.602785 -1.044602 2.367846 -2.637477 1.583244 2.295346 -59.348400 0.983312 4.927289 10.200199 -14.297309 -3.001354 -0.543541 -0.459046 3.725220 9.215413 1.242202 14.467394 -3.205662 0.000000 0.000000 -3.448908 26.343990 10.514407 0.645091 2.791620 -0.193952 31.969278 -21.208271 6.413618 -14.990637 17.352797 -18.175535 -0.339542 0.679783 -0.622438 -2.428315 33.589294 14.514144 4.297369 0.000000 0.000000 45.159485 9.088057 76.838120
2.073177 2.249185 3.001909 9.869530 -9.432393 1.252706 2.157264 1.277870 0.285463 -5.419076 -5.693789 -2.917772 -7.846720 1.508020 0.162255 -2.150514 9.233783 6.277702 0.125551 -0.425933 2.095085 3.568239 -0.399139 0.608002 6.647530 3.889108 -0.163003 -0.762291 -3.207440 11.403845 0.203596 6.731579 5.361482 0.244148 2.503409 -9.212204 0.248827 1.805523 -0.017656 1.066357 0.381536 -1.464477 0.092768 -0.399792 0.741534 -0.307346 1.576571 -5.172979 -1.288173 1.281983 12.230796 0.609551 -1.049955 2.396939 -2.645700 1.589480 2.294848 -59.742683 1.031980 4.970606 10.246808 -14.381771 -3.012176 -0.546733 -0.461694 3.744899 9.270720 1.251035 14.480234 -3.237812 0.000000 0.000000 -3.511698 26.429846 10.460650 0.647343 2.790189 -0.199416 32.248314 -21.201851 6.506872 -15.116398 17.469543 -18.220886 -0.335432 0.676654 -0.678920 -2.655564 33.514606 14.374667 4.323343 0.000000 0.000000 45.043118 8.875695 76.668549
2.095871 2.289754 3.001056 9.859983 -9.478619 1.284774 2.162374 1.280623 0.259849 -5.468900 -5.710968 -3.033081 -7.880026 1.546142 0.254164 -2.161031 9.255059 6.308814 0.125949 -0.436843 2.008970 3.565890 -0.409252 0.611740 6.717125 3.917202 -0.167387 -0.762205 -3.233107 11.496395 0.200246 6.767142 5.384472 0.244926 2.506405 -9.191863 0.265343 1.819972 -0.006346 1.076102 0.396479 -1.466436 0.097289 -0.394622 0.739098 -0.311473 1.576249 -5.225485 -1.262148 1.274460 12.297357 0.620745 -1.052518 2.432334 -2.647213 1.601251 2.295694 -60.100571 1.093245 5.048217 10.301986 -14.452943 -3.019727 -0.548847 -0.461797 3.796396 9.343510 1.287975 14.507033 -3.267096 0.000000 0.000000 -3.513430 26.591152 10.475760 0.659904 2.796296 -0.202042 32.569496 -21.177402 6.625248 -15.213248 17.612783 -18.248760 -0.329194 0.676055 -0.712733 -2.716333 33.514366 14.365451 4.352781 0.000000 0.000000 45.104572 8.764780 76.682098
2.118351 2.330089 2.998777 9.850354 -9.525229 1.317825 2.168861 1.284343 0.235310 -5.512364 -5.721643 -3.137187 -7.910275 1.586444 0.347838 -2.170851 9.276044 6.344782 0.127061 -0.446391 1.928178 3.564638 -0.418973 0.616143 6.788844 3.946257 -0.170229 -0.761825 -3.258296 11.590692 0.197288 6.804290 5.409506 0.245962 2.510185 -9.170256 0.282235 1.834580 0.005513 1.086021 0.411414 -1.468204 0.101954 -0.389721 0.735640 -0.315725 1.576184 -5.276575 -1.235143 1.267580 12.364399 0.632466 -1.054800 2.468284 -2.648337 1.613432 2.296614 -60.456196 1.155174 5.127157 10.357367 -14.523623 -3.027151 -0.550917 -0.461798 3.849089 9.416924 1.326110 14.534307 -3.296262 0.000000 0.000000 -3.512906 26.755070 10.493114 0.672808 2.802628 -0.204565 32.892200 -21.152376 6.744420 -15.309213 17.756855 -18.276178 -0.322903 0.675524 -0.745870 -2.772652 33.516087 14.359787 4.382315 0.000000 0.000000 45.169987 8.656092 76.699898
2.140023 2.369382 2.991331 9.840447 -9.575017 1.347620 2.172807 1.289850 0.212805 -5.551320 -5.726892 -3.221608 -7.936430 1.633757 0.457168 -2.181480 9.292372 6.376867 0.127293 -0.457718 1.839455 3.559268 -0.430193 0.617843 6.852571 3.971324 -0.179569 -0.764744 -3.287081 11.677506 0.192434 6.826962 5.415206 0.245275 2.509846 -9.168748 0.295712 1.847616 0.012472 1.093933 0.423447 -1.474016 0.104788 -0.387707 0.749518 -0.326153 1.572739 -5.331061 -1.216623 1.255912 12.422627 0.641679 -1.062112 2.500685 -2.654567 1.622844 2.295905 -60.830311 1.210048 5.191659 10.408235 -14.601103 -3.036268 -0.553533 -0.463198 3.882784 9.479747 1.350130 14.554439 -3.326936 0.000000 0.000000 -3.548240 26.875357 10.470672 0.679049 2.804013 -0.208855 33.188385 -21.138271 6.845607 -15.425898 17.882053 -18.317066 -0.318374 0.673131 -0.795698 -2.948417 33.462872 14.260127 4.409335 0.000000 0.000000 45.103405 8.472357 76.579460
